<?xml version="1.0" standalone="no"?>
<!DOCTYPE svg PUBLIC "-//W3C//DTD SVG 20010904//EN"
 "http://www.w3.org/TR/2001/REC-SVG-20010904/DTD/svg10.dtd">
<svg version="1.0" xmlns="http://www.w3.org/2000/svg"
 width="200.000000pt" height="200.000000pt" viewBox="0 0 200.000000 200.000000"
 preserveAspectRatio="xMidYMid meet">
<metadata>
Created by potrace 1.14, written by Peter Selinger 2001-2017
</metadata>
<g transform="translate(0.000000,200.000000) scale(0.100000,-0.100000)"
fill="#000000" stroke="none">
<path d="M996 1545 c-137 -46 -253 -88 -257 -92 -5 -5 42 -36 106 -68 l114
-60 58 -112 c32 -62 63 -113 68 -113 11 0 175 482 175 513 0 9 -3 17 -7 16 -5
0 -120 -38 -257 -84z m92 -82 l-117 -117 -95 49 c-53 27 -94 50 -93 52 7 6
392 132 407 133 8 0 -38 -53 -102 -117z m65 -112 c-37 -110 -70 -201 -73 -201
-8 0 -95 179 -90 184 55 59 225 225 227 222 2 -2 -27 -94 -64 -205z"/>
<path d="M670 915 l0 -117 66 4 c60 4 70 7 95 36 23 25 29 42 29 77 0 35 -6
52 -29 77 -25 29 -35 32 -95 36 l-66 4 0 -117z m127 54 c14 -12 18 -76 5 -96
-10 -15 -62 -35 -77 -29 -13 4 -20 119 -9 137 7 13 60 5 81 -12z"/>
<path d="M1072 995 c4 -17 1 -25 -8 -25 -16 0 -18 -22 -4 -36 6 -6 11 -28 12
-50 2 -62 13 -84 45 -84 37 0 58 14 47 31 -5 8 -16 14 -24 14 -10 0 -16 13
-18 41 -3 35 0 42 17 47 27 7 28 37 1 37 -15 0 -20 7 -20 25 0 20 -5 25 -26
25 -23 0 -26 -3 -22 -25z"/>
<path d="M901 961 c-8 -5 -11 -16 -7 -27 5 -13 9 -15 18 -6 17 17 53 15 68 -3
11 -13 8 -15 -22 -15 -47 0 -78 -24 -78 -61 0 -40 37 -58 83 -41 21 8 33 9 35
2 2 -5 12 -10 22 -10 18 0 19 6 13 68 -3 38 -12 75 -21 85 -16 18 -86 24 -111
8z m85 -93 c10 -15 -23 -37 -46 -31 -20 5 -26 23 -13 36 11 11 51 8 59 -5z"/>
<path d="M1203 963 c-7 -2 -13 -11 -13 -18 0 -10 12 -13 41 -12 26 1 44 -3 46
-10 3 -9 -6 -13 -26 -13 -17 0 -42 -10 -58 -24 -24 -21 -26 -26 -15 -50 13
-30 54 -43 87 -28 15 7 26 8 30 2 4 -6 15 -10 25 -10 18 0 19 5 14 63 -9 86
-24 107 -77 106 -23 0 -48 -3 -54 -6z m77 -102 c0 -20 -30 -33 -50 -21 -20 13
-3 40 25 40 18 0 25 -5 25 -19z"/>
<path d="M192 663 c5 -26 38 -29 38 -4 0 15 -6 21 -21 21 -14 0 -19 -5 -17
-17z"/>
<path d="M320 659 c0 -25 33 -22 38 4 2 12 -3 17 -17 17 -15 0 -21 -6 -21 -21z"/>
<path d="M442 663 c2 -10 10 -18 18 -18 22 0 18 29 -3 33 -14 3 -18 -1 -15
-15z"/>
<path d="M555 670 c-8 -13 3 -30 20 -30 14 0 27 24 18 34 -10 9 -31 7 -38 -4z"/>
<path d="M682 663 c2 -10 10 -18 18 -18 8 0 16 8 18 18 2 12 -3 17 -18 17 -15
0 -20 -5 -18 -17z"/>
<path d="M802 663 c4 -21 33 -25 33 -3 0 8 -8 16 -18 18 -14 3 -18 -1 -15 -15z"/>
<path d="M920 665 c0 -21 30 -31 40 -14 11 17 3 29 -21 29 -10 0 -19 -7 -19
-15z"/>
<path d="M1044 669 c-8 -14 11 -33 25 -25 6 4 11 14 11 22 0 16 -26 19 -36 3z"/>
<path d="M1164 669 c-8 -14 11 -33 25 -25 16 10 13 36 -3 36 -8 0 -18 -5 -22
-11z"/>
<path d="M1287 673 c-3 -5 -2 -15 3 -22 10 -17 43 -6 38 12 -6 15 -34 22 -41
10z"/>
<path d="M1406 671 c-9 -15 23 -36 36 -23 5 5 7 15 4 21 -9 13 -33 14 -40 2z"/>
<path d="M1524 669 c-8 -14 11 -33 25 -25 16 10 13 36 -3 36 -8 0 -18 -5 -22
-11z"/>
<path d="M1652 663 c2 -10 10 -18 18 -18 8 0 16 8 18 18 2 12 -3 17 -18 17
-15 0 -20 -5 -18 -17z"/>
<path d="M1772 663 c2 -10 10 -18 18 -18 8 0 16 8 18 18 2 12 -3 17 -18 17
-15 0 -20 -5 -18 -17z"/>
<path d="M372 592 c-8 -2 -12 -38 -12 -113 l0 -109 25 0 c22 0 25 4 25 35 0
33 2 35 35 35 66 0 108 74 71 122 -23 31 -96 46 -144 30z m106 -74 c3 -26 1
-28 -32 -28 -33 0 -36 2 -36 31 0 28 2 30 33 27 27 -2 33 -8 35 -30z"/>
<path d="M550 580 c0 -15 7 -20 25 -20 18 0 25 5 25 20 0 15 -7 20 -25 20 -18
0 -25 -5 -25 -20z"/>
<path d="M550 455 c0 -84 0 -85 25 -85 25 0 25 1 25 85 0 84 0 85 -25 85 -25
0 -25 -1 -25 -85z"/>
<path d="M648 510 c-26 -27 -30 -36 -25 -68 8 -45 38 -72 82 -72 47 0 64 8 81
42 20 38 10 82 -23 108 -38 29 -79 26 -115 -10z m90 -22 c15 -15 15 -51 0 -66
-17 -17 -55 -15 -62 4 -15 39 1 74 34 74 9 0 21 -5 28 -12z"/>
<path d="M820 455 c0 -84 0 -85 25 -85 24 0 25 3 25 54 0 56 17 83 45 72 11
-4 15 -21 15 -66 0 -57 1 -60 25 -60 24 0 25 2 25 63 0 74 -18 107 -59 107
-15 0 -33 -6 -40 -12 -11 -10 -14 -10 -18 0 -3 6 -13 12 -24 12 -17 0 -19 -8
-19 -85z"/>
<path d="M1044 528 c-47 -22 -57 -95 -19 -133 37 -38 135 -30 135 10 0 18 -23
19 -50 3 -15 -9 -25 -10 -37 -2 -38 24 -26 34 41 34 l66 0 -6 28 c-13 58 -76
87 -130 60z m80 -43 c4 -12 -3 -15 -34 -15 -38 0 -49 8 -33 23 12 13 61 7 67
-8z"/>
<path d="M1215 515 c-34 -33 -34 -93 -2 -123 30 -29 97 -30 121 -3 23 25 3 38
-31 20 -25 -14 -53 -5 -61 19 -2 8 15 12 57 12 59 0 61 1 61 25 0 65 -97 99
-145 50z m93 -32 c2 -9 -8 -13 -32 -13 -34 0 -44 8 -29 24 11 11 56 2 61 -11z"/>
<path d="M1387 533 c-4 -3 -7 -42 -7 -85 0 -77 0 -78 25 -78 24 0 25 3 25 56
0 52 2 56 30 65 30 11 39 32 20 44 -5 3 -18 1 -29 -5 -13 -7 -22 -7 -26 0 -7
11 -28 13 -38 3z"/>
<path d="M1522 524 c-16 -11 -22 -24 -20 -42 2 -22 12 -30 46 -42 23 -8 42
-20 42 -27 0 -15 -34 -17 -60 -3 -13 7 -21 6 -30 -5 -16 -19 16 -35 69 -35 43
0 71 20 71 50 0 20 -35 50 -60 50 -8 0 -22 5 -30 10 -24 16 7 31 38 19 32 -12
50 9 25 29 -23 17 -64 15 -91 -4z"/>
</g>
</svg>
